<svg width="28" height="28" viewBox="0 0 28 28" fill="none" xmlns="http://www.w3.org/2000/svg">
<path fill-rule="evenodd" clip-rule="evenodd" d="M14.5004 4.83871C12.9771 4.83871 11.7423 6.07354 11.7423 7.59677C11.7423 9.12001 12.9771 10.3548 14.5004 10.3548C16.0236 10.3548 17.2584 9.12001 17.2584 7.59677C17.2584 6.07354 16.0236 4.83871 14.5004 4.83871ZM9.90359 7.59677C9.90359 5.05805 11.9616 3 14.5004 3C17.0391 3 19.0971 5.05805 19.0971 7.59677C19.0971 10.1355 17.0391 12.1935 14.5004 12.1935C11.9616 12.1935 9.90359 10.1355 9.90359 7.59677Z" fill="#F7F9FD"/>
<path fill-rule="evenodd" clip-rule="evenodd" d="M14.5 15.871C12.5487 15.871 9.8545 16.5786 8.23377 17.1852C7.39293 17.4999 6.83871 18.3369 6.83871 19.3142V23.5323C6.83871 24.04 6.4271 24.4516 5.91935 24.4516C5.41161 24.4516 5 24.04 5 23.5323V19.3142C5 17.651 5.95717 16.074 7.58926 15.4632C9.30438 14.8212 12.2346 14.0323 14.5 14.0323C16.8284 14.0323 19.3605 14.869 21.2175 15.4919C22.9381 16.0689 24 17.6964 24 19.4506V23.5323C24 24.04 23.5884 24.4516 23.0806 24.4516C22.5729 24.4516 22.1613 24.04 22.1613 23.5323V19.4506C22.1613 18.4251 21.5476 17.5419 20.6328 17.2351C18.723 16.5946 16.4773 15.871 14.5 15.871Z" fill="#F7F9FD"/>
</svg>
