<svg width="109" height="36" viewBox="0 0 109 36" fill="none" xmlns="http://www.w3.org/2000/svg">
<path d="M54.7272 23.9401C54.7272 24.0007 53.6363 30.1219 49.9999 30.1219C49.9393 30.1219 49.9393 30.1219 49.8787 30.1219C48.0605 30.0613 46.4848 28.0007 45.5757 24.5461C50.2423 24.0007 53.2727 22.0007 55.0302 20.3643C57.8787 17.7582 59.6363 14.1219 59.7575 10.4249C59.8787 7.57641 59.0302 5.03096 57.3939 3.15217C55.7575 1.27338 53.3333 0.18247 50.606 0.0612582C46.909 -0.0599539 43.7575 2.00065 41.6363 5.87944C40.0605 8.84914 39.0908 12.8491 38.909 17.0916C38.6666 22.8491 39.7575 27.6976 41.9999 31.1522C43.9393 34.1219 46.7272 35.8794 49.6363 36.0007C49.7575 36.0007 49.8787 36.0007 49.9999 36.0007C56.8484 36.0007 59.8787 28.7885 60.5454 24.9097L60.606 24.6067L54.7878 23.637L54.7272 23.9401ZM44.8484 17.5764C44.8484 14.2431 45.3939 11.031 46.5454 8.84914C48.9696 4.24308 53.6969 6.00065 53.5757 10.0007C53.5151 12.0613 52.606 14.3037 50.9696 15.94C49.3939 17.5158 47.3333 18.4855 44.8484 18.8491C44.8484 18.4249 44.8484 18.0007 44.8484 17.5764Z" fill="black"/>
<path d="M54.7272 23.9401C54.7272 24.0007 53.6363 30.1219 49.9999 30.1219C49.9393 30.1219 49.9393 30.1219 49.8787 30.1219C48.0605 30.0613 46.4848 28.0007 45.5757 24.5461C50.2423 24.0007 53.2727 22.0007 55.0302 20.3643C57.8787 17.7582 59.6363 14.1219 59.7575 10.4249C59.8787 7.57641 59.0302 5.03096 57.3939 3.15217C55.7575 1.27338 53.3333 0.18247 50.606 0.0612582C46.909 -0.0599539 43.7575 2.00065 41.6363 5.87944C40.0605 8.84914 39.0908 12.8491 38.909 17.0916C38.6666 22.8491 39.7575 27.6976 41.9999 31.1522C43.9393 34.1219 46.7272 35.8794 49.6363 36.0007C49.7575 36.0007 49.8787 36.0007 49.9999 36.0007C56.8484 36.0007 59.8787 28.7885 60.5454 24.9097L60.606 24.6067L54.7878 23.637L54.7272 23.9401ZM44.8484 17.5764C44.8484 14.2431 45.3939 11.031 46.5454 8.84914C48.9696 4.24308 53.6969 6.00065 53.5757 10.0007C53.5151 12.0613 52.606 14.3037 50.9696 15.94C49.3939 17.5158 47.3333 18.4855 44.8484 18.8491C44.8484 18.4249 44.8484 18.0007 44.8484 17.5764Z" fill="white"/>
<path d="M28 4.66667H27.9394C26.7879 3.57576 25.6364 2.66667 24.4848 2C23.3333 1.33333 22.1212 0.787879 20.8485 0.484849C19.5152 0.181818 18.1818 0 16.6667 0C13.5758 0 10.7273 0.787879 8.18182 2.36364C5.63636 3.93939 3.63636 6.06061 2.18182 8.78788C0.727273 11.4545 0 14.4848 0 17.8182C0 21.2121 0.727273 24.303 2.18182 27.0303C3.63636 29.7576 5.63636 31.9394 8.24242 33.5152C10.8485 35.0909 13.697 35.9394 16.9091 35.9394C18.303 35.9394 19.5758 35.7576 20.8485 35.4546C22.0606 35.0909 23.2727 34.6061 24.4848 33.8788C25.6364 33.1515 26.7879 32.2424 27.9394 31.1515H28V34.9697H34.0606V0.848485H28V4.66667ZM26.7879 24.1212C25.8788 25.9394 24.6061 27.3939 22.9697 28.4242C21.3333 29.4546 19.3939 30 17.2727 30C15.0909 30 13.2121 29.4546 11.5758 28.4242C10 27.3939 8.78788 25.9394 7.93939 24.1212C7.09091 22.303 6.66667 20.1818 6.66667 17.8182C6.66667 15.6364 7.09091 13.6364 8 11.8182C8.84848 10 10.1212 8.60606 11.7576 7.51515C13.3939 6.48485 15.2727 5.93939 17.3333 5.93939C19.4545 5.93939 21.3333 6.48485 22.9697 7.51515C24.6061 8.54546 25.8788 10 26.7879 11.8182C27.697 13.6364 28.1212 15.697 28.1212 17.9394C28.1212 20.2424 27.697 22.2424 26.7879 24.1212Z" fill="black"/>
<path d="M28 4.66667H27.9394C26.7879 3.57576 25.6364 2.66667 24.4848 2C23.3333 1.33333 22.1212 0.787879 20.8485 0.484849C19.5152 0.181818 18.1818 0 16.6667 0C13.5758 0 10.7273 0.787879 8.18182 2.36364C5.63636 3.93939 3.63636 6.06061 2.18182 8.78788C0.727273 11.4545 0 14.4848 0 17.8182C0 21.2121 0.727273 24.303 2.18182 27.0303C3.63636 29.7576 5.63636 31.9394 8.24242 33.5152C10.8485 35.0909 13.697 35.9394 16.9091 35.9394C18.303 35.9394 19.5758 35.7576 20.8485 35.4546C22.0606 35.0909 23.2727 34.6061 24.4848 33.8788C25.6364 33.1515 26.7879 32.2424 27.9394 31.1515H28V34.9697H34.0606V0.848485H28V4.66667ZM26.7879 24.1212C25.8788 25.9394 24.6061 27.3939 22.9697 28.4242C21.3333 29.4546 19.3939 30 17.2727 30C15.0909 30 13.2121 29.4546 11.5758 28.4242C10 27.3939 8.78788 25.9394 7.93939 24.1212C7.09091 22.303 6.66667 20.1818 6.66667 17.8182C6.66667 15.6364 7.09091 13.6364 8 11.8182C8.84848 10 10.1212 8.60606 11.7576 7.51515C13.3939 6.48485 15.2727 5.93939 17.3333 5.93939C19.4545 5.93939 21.3333 6.48485 22.9697 7.51515C24.6061 8.54546 25.8788 10 26.7879 11.8182C27.697 13.6364 28.1212 15.697 28.1212 17.9394C28.1212 20.2424 27.697 22.2424 26.7879 24.1212Z" fill="white"/>
<path d="M85.6969 0.848619L81.0909 22.485L76.4848 0.848619H67.3939L64.9697 35.2123H70.7879L72.6666 8.54559L78.303 35.2123H83.8788L89.5757 8.54559L91.4545 35.2123H97.2121L94.7879 0.848619H85.6969Z" fill="black"/>
<path d="M85.6969 0.848619L81.0909 22.485L76.4848 0.848619H67.3939L64.9697 35.2123H70.7879L72.6666 8.54559L78.303 35.2123H83.8788L89.5757 8.54559L91.4545 35.2123H97.2121L94.7879 0.848619H85.6969Z" fill="white"/>
<path d="M108.061 0.848619H102.182V35.2123H108.061V0.848619Z" fill="black"/>
<path d="M108.061 0.848619H102.182V35.2123H108.061V0.848619Z" fill="white"/>
</svg>
