<svg width="28" height="28" viewBox="0 0 28 28" fill="none" xmlns="http://www.w3.org/2000/svg">
<path d="M15.1668 23.9167C15.1668 24.8832 14.3833 25.6667 13.4168 25.6667C12.4503 25.6667 11.6668 24.8832 11.6668 23.9167C11.6668 22.9502 12.4503 22.1667 13.4168 22.1667C14.3833 22.1667 15.1668 22.9502 15.1668 23.9167Z" fill="#F7F9FD"/>
<path d="M22.1668 23.9167C22.1668 24.8832 21.3833 25.6667 20.4168 25.6667C19.4503 25.6667 18.6668 24.8832 18.6668 23.9167C18.6668 22.9502 19.4503 22.1667 20.4168 22.1667C21.3833 22.1667 22.1668 22.9502 22.1668 23.9167Z" fill="#F7F9FD"/>
<path fill-rule="evenodd" clip-rule="evenodd" d="M2.62516 10.5C2.62516 10.0168 3.01691 9.625 3.50016 9.625L4.66683 9.625C5.15008 9.625 5.54183 10.0168 5.54183 10.5C5.54183 10.9832 5.15008 11.375 4.66683 11.375H3.50016C3.01691 11.375 2.62516 10.9832 2.62516 10.5Z" fill="#F7F9FD"/>
<path fill-rule="evenodd" clip-rule="evenodd" d="M3.79183 17.5C3.79183 17.0168 4.18358 16.625 4.66683 16.625H5.8335C6.31675 16.625 6.7085 17.0168 6.7085 17.5C6.7085 17.9832 6.31675 18.375 5.8335 18.375H4.66683C4.18358 18.375 3.79183 17.9832 3.79183 17.5Z" fill="#F7F9FD"/>
<path fill-rule="evenodd" clip-rule="evenodd" d="M1.4585 14C1.4585 13.5168 1.85025 13.125 2.3335 13.125H5.8335C6.31675 13.125 6.7085 13.5168 6.7085 14C6.7085 14.4832 6.31675 14.875 5.8335 14.875H2.3335C1.85025 14.875 1.4585 14.4832 1.4585 14Z" fill="#F7F9FD"/>
<path fill-rule="evenodd" clip-rule="evenodd" d="M1.4585 3.5C1.4585 3.01675 1.85025 2.625 2.3335 2.625H5.4405C6.62481 2.625 7.66245 3.41802 7.9734 4.56078L8.55777 6.70833H23.483C25.1634 6.70833 26.4111 8.2653 26.0449 9.90533L24.0913 18.6553C23.8235 19.8551 22.7588 20.7083 21.5294 20.7083H12.0265C10.7971 20.7083 9.73242 19.8551 9.46454 18.6553L7.03947 7.79365L6.2848 5.02026C6.18115 4.63934 5.83527 4.375 5.4405 4.375H2.3335C1.85025 4.375 1.4585 3.98325 1.4585 3.5ZM8.98096 8.45833L11.1725 18.274C11.2618 18.6739 11.6167 18.9583 12.0265 18.9583H21.5294C21.9392 18.9583 22.2941 18.6739 22.3834 18.274L24.337 9.524C24.4591 8.97732 24.0432 8.45833 23.483 8.45833H8.98096Z" fill="#F7F9FD"/>
</svg>
