<svg width="20" height="20" viewBox="0 0 20 20" fill="none" xmlns="http://www.w3.org/2000/svg">
<path fill-rule="evenodd" clip-rule="evenodd" d="M9.28658 4.33941C9.51109 3.64842 10.4886 3.64843 10.7132 4.33941L11.2023 5.84494H12.7853C13.5119 5.84494 13.814 6.77466 13.2262 7.20171L11.9455 8.13217L12.4347 9.6377C12.6592 10.3287 11.8683 10.9033 11.2806 10.4762L9.99987 9.54576L8.71919 10.4762C8.1314 10.9033 7.34054 10.3287 7.56506 9.63771L8.05423 8.13217L6.77355 7.2017C6.18576 6.77465 6.48785 5.84494 7.21439 5.84494H8.7974L9.28658 4.33941ZM9.99987 6.18921L9.87396 6.57671C9.77356 6.88572 9.48559 7.09494 9.16067 7.09494H8.75323L9.08286 7.33443C9.34572 7.52541 9.45572 7.86394 9.35531 8.17295L9.22941 8.56045L9.55903 8.32097C9.8219 8.12998 10.1778 8.12998 10.4407 8.32097L10.7703 8.56045L10.6444 8.17295C10.544 7.86394 10.654 7.52541 10.9169 7.33443L11.2465 7.09494H10.8391C10.5141 7.09494 10.2262 6.88572 10.1258 6.57671L9.99987 6.18921Z" fill="#F7F9FD"/>
<path fill-rule="evenodd" clip-rule="evenodd" d="M9.99987 2.29167C7.12339 2.29167 4.79154 4.62352 4.79154 7.5C4.79154 10.3765 7.12339 12.7083 9.99987 12.7083C12.8764 12.7083 15.2082 10.3765 15.2082 7.5C15.2082 4.62352 12.8764 2.29167 9.99987 2.29167ZM3.54154 7.5C3.54154 3.93316 6.43303 1.04167 9.99987 1.04167C13.5667 1.04167 16.4582 3.93316 16.4582 7.5C16.4582 11.0668 13.5667 13.9583 9.99987 13.9583C6.43303 13.9583 3.54154 11.0668 3.54154 7.5Z" fill="#F7F9FD"/>
<path fill-rule="evenodd" clip-rule="evenodd" d="M8.596 13.6251L9.00013 12.7763L10.0685 13.4125L9.65675 14.2773C9.65168 14.288 9.64633 14.2984 9.6407 14.3087L8.61667 16.1827L7.55704 18.1703C7.5553 18.1736 7.5534 18.1772 7.55136 18.181C7.52967 18.2219 7.4916 18.2937 7.45048 18.3526C7.41234 18.4073 7.27284 18.6023 7.00741 18.6358C6.90661 18.6485 6.80348 18.6361 6.70571 18.5997C6.44831 18.5038 6.33486 18.2785 6.30401 18.2156C6.27075 18.1478 6.24207 18.068 6.22573 18.0226C6.2242 18.0183 6.22277 18.0144 6.22145 18.0107L5.58538 16.2524L3.79106 16.6204C3.78724 16.6211 3.78312 16.622 3.77874 16.6229C3.73127 16.6327 3.65265 16.649 3.5817 16.6543C3.52295 16.6587 3.27445 16.6772 3.05669 16.4674C2.97607 16.3897 2.91244 16.2934 2.87088 16.1862C2.75862 15.8965 2.85767 15.6523 2.88112 15.5944C2.90943 15.5246 2.95009 15.4505 2.97456 15.4058C2.97683 15.4017 2.97895 15.3978 2.98092 15.3943L4.18253 13.1954L4.19044 13.1813L5.38671 11.1202L6.40715 11.8474L5.21492 13.9015L4.54232 15.1323L5.69533 14.8959L5.69966 14.895C5.71794 14.8912 5.76659 14.881 5.81446 14.8766C5.8782 14.8707 5.99447 14.8683 6.12793 14.9257C6.18853 14.9517 6.24577 14.9869 6.29795 15.03C6.41288 15.1251 6.47332 15.236 6.50304 15.2993C6.52535 15.3467 6.54373 15.398 6.55063 15.4173L6.55227 15.4219L6.98118 16.6075L7.57576 15.4922L8.596 13.6251Z" fill="#F7F9FD"/>
<path fill-rule="evenodd" clip-rule="evenodd" d="M13.6251 12.7031L13.1807 11.9682L14.2991 11.4262L14.7535 12.1776C14.7602 12.1886 14.7665 12.1998 14.7724 12.2111L15.6809 13.9431L16.655 15.75C16.6566 15.7531 16.6585 15.7565 16.6605 15.7602C16.6814 15.7989 16.7194 15.8689 16.7453 15.9348C16.7706 15.9993 16.8509 16.2153 16.7399 16.4492C16.6972 16.5393 16.6329 16.6182 16.5518 16.6803C16.341 16.8416 16.0996 16.8233 16.0273 16.8166C15.9533 16.8098 15.872 16.793 15.8271 16.7837C15.8228 16.7828 15.8189 16.782 15.8153 16.7813L14.0075 16.411L13.2556 18.0373C13.254 18.0407 13.2524 18.0443 13.2506 18.0482C13.2314 18.0898 13.1986 18.1612 13.1612 18.2206C13.1281 18.2731 12.9992 18.4746 12.7115 18.5303C12.6034 18.5513 12.4901 18.5486 12.3803 18.5224C12.0879 18.4528 11.9439 18.2448 11.9069 18.1905C11.865 18.1293 11.8269 18.0562 11.8046 18.0136C11.8025 18.0096 11.8006 18.0059 11.7988 18.0024L10.7392 15.9825L9.42314 13.5733L10.5694 13.0796L11.888 15.4935L12.4752 16.6128L12.9635 15.5567L12.9652 15.553C12.9723 15.5374 12.9918 15.4948 13.0152 15.4557C13.0465 15.4032 13.1083 15.3144 13.2223 15.2417C13.2746 15.2084 13.3319 15.182 13.3926 15.1632C13.5251 15.1222 13.642 15.1287 13.7081 15.1362C13.7574 15.1418 13.8076 15.1523 13.826 15.1561L13.8303 15.157L15.0586 15.4086L14.5297 14.4274L13.6251 12.7031Z" fill="#F7F9FD"/>
</svg>
