<svg width="28" height="28" viewBox="0 0 28 28" fill="none" xmlns="http://www.w3.org/2000/svg">
<path fill-rule="evenodd" clip-rule="evenodd" d="M16.0417 3.49992C16.0417 2.37234 15.1276 1.45825 14 1.45825C12.8725 1.45825 11.9584 2.37234 11.9584 3.49992V4.59992H13.7084V3.49992C13.7084 3.33884 13.839 3.20825 14 3.20825C14.1611 3.20825 14.2917 3.33884 14.2917 3.49992V4.66658H16.0417V3.49992Z" fill="#F7F9FD"/>
<path fill-rule="evenodd" clip-rule="evenodd" d="M7.62007 9.9993C6.84412 6.88452 9.0267 3.79159 12.327 3.79159H15.3618C18.793 3.79159 20.9326 7.08969 20.3182 10.253C19.7985 12.929 19.9303 15.283 21.4289 17.7201C21.682 18.1318 21.5535 18.6707 21.1419 18.9238C20.7302 19.1769 20.1913 19.0484 19.9382 18.6368C18.1439 15.7187 18.0246 12.8837 18.6003 9.91936C19.0457 7.62653 17.4888 5.54159 15.3618 5.54159H12.327C10.2541 5.54159 8.79524 7.47714 9.31817 9.57627C9.65201 10.9163 9.82517 12.1491 9.66474 13.5497C9.50562 14.9389 9.02527 16.4338 8.14038 18.3187C7.93501 18.7562 7.41391 18.9443 6.97647 18.7389C6.53903 18.5336 6.3509 18.0125 6.55626 17.575C7.39726 15.7836 7.79664 14.4809 7.92611 13.3505C8.05428 12.2316 7.92489 11.2229 7.62007 9.9993Z" fill="#F7F9FD"/>
<path fill-rule="evenodd" clip-rule="evenodd" d="M7.0898 19.2499C7.40546 19.3793 7.84585 19.5112 8.40867 19.6318C9.81015 19.9321 11.7875 20.1249 14 20.1249C16.2126 20.1249 18.1899 19.9321 19.5914 19.6318C20.1542 19.5112 20.5946 19.3793 20.9103 19.2499C20.5946 19.1205 20.1542 18.9887 19.5914 18.8681C18.1899 18.5677 16.2126 18.3749 14 18.3749C11.7875 18.3749 9.81015 18.5677 8.40867 18.8681C7.84585 18.9887 7.40546 19.1205 7.0898 19.2499ZM8.042 17.1569C9.59628 16.8238 11.7023 16.6249 14 16.6249C16.2978 16.6249 18.4038 16.8238 19.9581 17.1569C20.7281 17.3219 21.4098 17.5295 21.9204 17.7882C22.1743 17.9168 22.4303 18.08 22.6336 18.2929C22.8405 18.5096 23.0417 18.8328 23.0417 19.2499C23.0417 19.667 22.8405 19.9902 22.6336 20.2069C22.4303 20.4198 22.1743 20.583 21.9204 20.7116C21.4098 20.9703 20.7281 21.1779 19.9581 21.3429C18.4038 21.676 16.2978 21.8749 14 21.8749C11.7023 21.8749 9.59628 21.676 8.042 21.3429C7.27202 21.1779 6.59026 20.9703 6.07971 20.7116C5.82579 20.583 5.56978 20.4198 5.36648 20.2069C5.15959 19.9902 4.95838 19.667 4.95838 19.2499C4.95838 18.8328 5.15959 18.5096 5.36648 18.2929C5.56978 18.08 5.82579 17.9168 6.07971 17.7882C6.59026 17.5295 7.27202 17.3219 8.042 17.1569Z" fill="#F7F9FD"/>
<path fill-rule="evenodd" clip-rule="evenodd" d="M22.9633 8.50481C22.6242 8.85258 22.629 9.40592 22.974 9.74072C23.2638 10.022 23.4104 10.4455 23.4131 10.988C23.4157 11.5318 23.2695 12.1014 23.0862 12.5227C22.8928 12.9671 23.0954 13.4802 23.5388 13.6686C23.9822 13.857 24.4984 13.6494 24.6919 13.2049C24.9548 12.6007 25.1689 11.7896 25.1649 10.9613C25.1608 10.1316 24.9338 9.19147 24.202 8.48131C23.857 8.14651 23.3025 8.15703 22.9633 8.50481Z" fill="#F7F9FD"/>
<path fill-rule="evenodd" clip-rule="evenodd" d="M5.03653 8.50553C5.37585 8.85342 5.37135 9.4067 5.02649 9.74132C4.73678 10.0224 4.59035 10.4459 4.58796 10.9883C4.58557 11.5321 4.73206 12.1016 4.91562 12.523C5.10928 12.9675 4.90687 13.4803 4.46352 13.6685C4.02017 13.8567 3.50377 13.649 3.31011 13.2045C3.04683 12.6002 2.83234 11.789 2.83598 10.9608C2.83963 10.1312 3.06624 9.19128 3.79773 8.48151C4.14259 8.14689 4.69722 8.15764 5.03653 8.50553Z" fill="#F7F9FD"/>
<path fill-rule="evenodd" clip-rule="evenodd" d="M12.4323 24.2157C12.28 23.8045 11.8276 23.5854 11.4085 23.7252C10.9806 23.8678 10.7493 24.3303 10.892 24.7582L11.6667 24.4999C10.892 24.7582 10.8923 24.7593 10.8923 24.7593L10.8927 24.7605L10.8936 24.7629L10.8954 24.7682L10.8995 24.78C10.9026 24.7885 10.9062 24.7982 10.9104 24.809C10.9188 24.8306 10.9296 24.8567 10.9431 24.8867C10.9702 24.9465 11.0085 25.0221 11.061 25.1081C11.1661 25.2801 11.329 25.4944 11.5727 25.7033C12.074 26.133 12.8507 26.4833 14 26.4833C15.1494 26.4833 15.9261 26.133 16.4274 25.7033C16.671 25.4944 16.8339 25.2801 16.9391 25.1081C16.9916 25.0221 17.0299 24.9465 17.0569 24.8867C17.0705 24.8567 17.0813 24.8306 17.0897 24.809C17.0939 24.7982 17.0975 24.7885 17.1005 24.78L17.1047 24.7682L17.1065 24.7629L17.1074 24.7605L17.1077 24.7593C17.1077 24.7593 17.1081 24.7582 16.3334 24.4999L17.1081 24.7582C17.2508 24.3303 17.0195 23.8678 16.5916 23.7252C16.1725 23.5854 15.7201 23.8045 15.5678 24.2157C15.5649 24.2218 15.5578 24.2361 15.5454 24.2564C15.5168 24.3031 15.461 24.3804 15.3644 24.4632C15.1851 24.6169 14.7951 24.8499 14 24.8499C13.205 24.8499 12.815 24.6169 12.6357 24.4632C12.5391 24.3804 12.4832 24.3031 12.4547 24.2564C12.4423 24.2361 12.4352 24.2218 12.4323 24.2157Z" fill="#F7F9FD"/>
</svg>
