<svg width="96" height="156" viewBox="0 0 96 156" fill="none" xmlns="http://www.w3.org/2000/svg">
<path d="M94.4293 102.884C93.4304 99.5341 91.9321 96.663 90.4337 93.7918C88.4359 90.9207 85.9387 88.0495 82.942 84.6998H92.931V68.9084H2.53077V84.6998H12.5197C9.52305 87.571 7.02581 90.4421 5.52746 93.7918C3.52967 96.663 2.53077 100.013 1.53187 103.362C0.532976 106.234 0.0335273 109.583 0.0335273 113.411C0.0335273 121.546 2.03132 128.724 6.52636 134.945C10.5219 141.645 16.5153 146.43 23.5076 150.258C30.4999 154.086 38.9905 156 47.4811 156C56.4712 156 64.4624 154.086 71.9541 150.258C79.4458 146.43 84.9398 141.166 89.4348 134.945C93.9298 128.246 95.9277 121.068 95.9277 112.933C95.9277 109.105 95.4282 105.755 94.4293 102.884ZM75.9497 126.332C72.953 130.16 69.4569 133.51 64.4624 135.424C59.4679 137.816 53.974 138.773 47.4811 138.773C41.4878 138.773 35.9938 137.816 31.4988 135.424C26.5043 133.031 23.0082 130.16 20.0115 125.853C17.0148 121.546 16.0159 116.761 16.0159 111.497C16.0159 106.234 17.5142 101.448 20.0115 97.1415C23.0082 92.8348 26.5043 89.4851 31.4988 87.571C36.4933 85.1783 41.9872 84.2213 47.9806 84.2213C53.974 84.2213 59.4679 85.1783 64.4624 87.571C69.4569 89.9636 73.4525 93.3133 75.9497 97.1415C78.9464 101.448 79.9453 106.234 79.9453 111.497C79.9453 117.718 78.9464 122.503 75.9497 126.332Z" fill="#416EC2"/>
<path d="M62.9618 14.3558H63.9607C63.9607 14.3558 80.4425 17.227 80.4425 26.319C80.4425 26.319 80.4425 26.319 80.4425 26.7975C80.4425 31.5828 74.9486 35.411 65.4591 37.8037C63.9607 25.8405 58.4668 18.184 54.4712 13.3988C46.9794 6.22086 37.4899 1.91411 27.501 1.91411C20.0092 1.43558 13.017 3.34969 8.02246 7.65644C3.02798 11.9632 0.530737 18.184 0.0312882 24.8834C-0.46816 34.454 5.02577 42.5889 15.5142 47.8527C23.5054 52.1595 33.9938 54.5521 45.4811 55.0306C60.964 55.5092 73.9497 52.638 82.9397 47.3742C90.9309 42.5889 95.426 35.411 95.9254 27.7546C95.9254 27.2761 95.9254 27.2761 95.9254 26.7975C95.9254 9.09202 76.4469 1.43558 66.4579 0H65.4591L62.9618 14.3558ZM26.5021 17.7055C31.996 17.7055 37.9894 20.0981 42.4844 24.4049C46.48 28.2331 48.9772 33.4969 49.9761 39.7178C48.9772 39.7178 47.4789 39.7178 46.48 39.7178C37.4899 39.7178 28.9993 38.2822 23.0059 35.411C18.5109 33.0184 16.0136 30.1472 16.0136 26.7975C16.0136 18.6626 22.5065 17.7055 26.5021 17.7055Z" fill="#416EC2"/>
</svg>
