<svg width="24" height="24" viewBox="0 0 24 24" fill="none" xmlns="http://www.w3.org/2000/svg">
<path d="M2 4C2 2.89543 2.89543 2 4 2H20C21.1046 2 22 2.89543 22 4V20C22 21.1046 21.1046 22 20 22H4C2.89543 22 2 21.1046 2 20V4Z" fill="#EEF5FB"/>
<path d="M15.6479 4.59131L15.2446 3.99957H12.8039V9.32914L12.7956 14.535C12.7997 14.5736 12.8039 14.6162 12.8039 14.6549C12.8039 15.9582 11.6646 17.0218 10.2593 17.0218C8.85391 17.0218 7.71466 15.9621 7.71466 14.6549C7.71466 13.3515 8.85391 12.2879 10.2593 12.2879C10.5503 12.2879 10.8331 12.3381 11.095 12.4232V9.8242C10.8247 9.78165 10.5462 9.75845 10.2593 9.75845C7.36124 9.76231 4.99957 11.9591 4.99957 14.6587C4.99957 17.3583 7.36124 19.5551 10.2634 19.5551C13.1656 19.5551 15.5273 17.3583 15.5273 14.6587V8.46666C16.5792 9.44517 17.9389 10.4005 19.444 10.706V8.04896C17.81 7.376 16.1842 5.38804 15.6479 4.59131Z" fill="black"/>
<path d="M15.6479 4.59131L15.2446 3.99957H12.8039V9.32914L12.7956 14.535C12.7997 14.5736 12.8039 14.6162 12.8039 14.6549C12.8039 15.9582 11.6646 17.0218 10.2593 17.0218C8.85391 17.0218 7.71466 15.9621 7.71466 14.6549C7.71466 13.3515 8.85391 12.2879 10.2593 12.2879C10.5503 12.2879 10.8331 12.3381 11.095 12.4232V9.8242C10.8247 9.78165 10.5462 9.75845 10.2593 9.75845C7.36124 9.76231 4.99957 11.9591 4.99957 14.6587C4.99957 17.3583 7.36124 19.5551 10.2634 19.5551C13.1656 19.5551 15.5273 17.3583 15.5273 14.6587V8.46666C16.5792 9.44517 17.9389 10.4005 19.444 10.706V8.04896C17.81 7.376 16.1842 5.38804 15.6479 4.59131Z" fill="#416EC2"/>
</svg>
