<svg width="24" height="24" viewBox="0 0 24 24" fill="none" xmlns="http://www.w3.org/2000/svg">
<path d="M21.5227 17.3828C20.9775 17.7158 20.3719 17.7886 19.7478 17.7886C16.987 17.7886 14.2261 17.7873 11.4645 17.7906C11.1542 17.7913 10.8493 17.761 10.5465 17.7044C9.82011 17.5682 9.31614 16.975 9.3134 16.2544C9.31202 15.8567 9.48093 15.5163 9.71163 15.2015C11.5772 12.6569 13.4591 10.123 15.3343 7.5851C15.4634 7.41051 15.6865 7.22918 15.5794 6.99528C15.4647 6.74519 15.1784 6.83417 14.9615 6.83148C13.9116 6.82069 12.8625 6.83552 11.8127 6.82339C10.9743 6.81395 10.2293 6.32187 9.95538 5.61813C9.42737 4.26324 10.366 2.93126 11.871 2.92587C14.7919 2.91643 17.7127 2.92317 20.6329 2.92182C20.9363 2.92182 21.2199 2.98316 21.4939 3.10787C21.6243 3.16719 21.7562 3.26223 21.91 3.15842C21.9065 2.71555 21.8063 2.29358 21.6312 1.88711C21.1203 1.22314 20.4351 0.997328 19.5988 1.00002C14.785 1.01688 9.97048 1.00811 5.15597 1.00811C4.93969 1.00811 4.72409 1.00474 4.51055 1.06339C3.53694 1.33032 3.00688 2.03406 3.00688 3.08899C3.00482 7.84933 3.01237 12.6097 3.00001 17.3693C2.99795 18.1863 3.28907 18.8267 3.96127 19.3026C4.53184 19.5338 5.13056 19.5776 5.73959 19.5689C6.34449 19.5601 6.9494 19.5749 7.5543 19.5641C7.831 19.5594 7.94635 19.6612 7.94086 19.9383C7.92919 20.5092 7.93537 21.0815 7.94017 21.6524C7.94155 21.7691 7.88731 21.9234 8.02737 21.9868C8.14547 22.04 8.23198 21.9194 8.32193 21.856C9.30584 21.1658 10.2925 20.4789 11.2702 19.7798C11.4858 19.6255 11.7035 19.5635 11.9671 19.5641C14.4101 19.5702 16.8524 19.5655 19.2953 19.5702C19.6393 19.5709 19.9792 19.5432 20.3177 19.494C21.3153 19.3498 22.1166 18.2167 21.8392 17.3451C21.7225 17.2676 21.6209 17.3222 21.5227 17.3828Z" fill="#EEF5FB"/>
<path d="M21.9083 6.4028C21.9083 6.26641 21.9259 6.12683 21.8457 6C19.9278 8.3652 18.01 10.7304 16.095 13.0975C16.0302 13.1778 15.8929 13.2549 15.9534 13.3665C16.014 13.4774 16.164 13.4296 16.2745 13.4302C17.5383 13.4334 18.802 13.4321 20.0658 13.4328C20.7304 13.4334 21.3408 13.5749 21.84 14C21.9231 13.8744 21.9083 13.7349 21.9083 13.5985C21.909 11.2001 21.909 8.80115 21.9083 6.4028Z" fill="#EEF5FB"/>
</svg>
